TITLE ""
FILE "1Q_t_1939-1948.mp3" MP3
  TRACK 01 AUDIO
    TITLE "1Q_t_1939-1948_01"
    INDEX 01 00:00:00
  TRACK 02 AUDIO
    TITLE "1Q_t_1939-1948_02"
    INDEX 01 00:01:22
  TRACK 03 AUDIO
    TITLE "1Q_t_1939-1948_03"
    INDEX 01 00:01:29
  TRACK 04 AUDIO
    TITLE "1Q_t_1939-1948_04"
    INDEX 01 00:02:50
  TRACK 05 AUDIO
    TITLE "1Q_t_1939-1948_05"
    INDEX 01 00:02:58
  TRACK 06 AUDIO
    TITLE "1Q_t_1939-1948_06"
    INDEX 01 00:07:55
  TRACK 07 AUDIO
    TITLE "1Q_t_1939-1948_07"
    INDEX 01 00:08:27
  TRACK 08 AUDIO
    TITLE "1Q_t_1939-1948_08"
    INDEX 01 00:09:45
  TRACK 09 AUDIO
    TITLE "1Q_t_1939-1948_09"
    INDEX 01 00:09:52
  TRACK 10 AUDIO
    TITLE "1Q_t_1939-1948_10"
    INDEX 01 00:10:50
  TRACK 11 AUDIO
    TITLE "1Q_t_1939-1948_11"
    INDEX 01 00:10:60
  TRACK 12 AUDIO
    TITLE "1Q_t_1939-1948_12"
    INDEX 01 00:14:46
  TRACK 13 AUDIO
    TITLE "1Q_t_1939-1948_13"
    INDEX 01 00:15:18
  TRACK 14 AUDIO
    TITLE "1Q_t_1939-1948_14"
    INDEX 01 00:16:45
  TRACK 15 AUDIO
    TITLE "1Q_t_1939-1948_15"
    INDEX 01 00:16:54
  TRACK 16 AUDIO
    TITLE "1Q_t_1939-1948_16"
    INDEX 01 00:18:43
  TRACK 17 AUDIO
    TITLE "1Q_t_1939-1948_17"
    INDEX 01 00:18:53
  TRACK 18 AUDIO
    TITLE "1Q_t_1939-1948_18"
    INDEX 01 00:24:30
  TRACK 19 AUDIO
    TITLE "1Q_t_1939-1948_19"
    INDEX 01 00:25:02
  TRACK 20 AUDIO
    TITLE "1Q_t_1939-1948_20"
    INDEX 01 00:26:27
  TRACK 21 AUDIO
    TITLE "1Q_t_1939-1948_21"
    INDEX 01 00:26:37
  TRACK 22 AUDIO
    TITLE "1Q_t_1939-1948_22"
    INDEX 01 00:27:60
  TRACK 23 AUDIO
    TITLE "1Q_t_1939-1948_23"
    INDEX 01 00:27:68
  TRACK 24 AUDIO
    TITLE "1Q_t_1939-1948_24"
    INDEX 01 00:32:63
  TRACK 25 AUDIO
    TITLE "1Q_t_1939-1948_25"
    INDEX 01 00:33:35
  TRACK 26 AUDIO
    TITLE "1Q_t_1939-1948_26"
    INDEX 01 00:34:64
  TRACK 27 AUDIO
    TITLE "1Q_t_1939-1948_27"
    INDEX 01 00:35:01
  TRACK 28 AUDIO
    TITLE "1Q_t_1939-1948_28"
    INDEX 01 00:38:52
  TRACK 29 AUDIO
    TITLE "1Q_t_1939-1948_29"
    INDEX 01 00:38:62
  TRACK 30 AUDIO
    TITLE "1Q_t_1939-1948_30"
    INDEX 01 00:43:10
  TRACK 31 AUDIO
    TITLE "1Q_t_1939-1948_31"
    INDEX 01 00:43:59
  TRACK 32 AUDIO
    TITLE "1Q_t_1939-1948_32"
    INDEX 01 00:44:72
  TRACK 33 AUDIO
    TITLE "1Q_t_1939-1948_33"
    INDEX 01 00:45:07
  TRACK 34 AUDIO
    TITLE "1Q_t_1939-1948_34"
    INDEX 01 00:46:12
  TRACK 35 AUDIO
    TITLE "1Q_t_1939-1948_35"
    INDEX 01 00:46:22
  TRACK 36 AUDIO
    TITLE "1Q_t_1939-1948_36"
    INDEX 01 00:50:16
  TRACK 37 AUDIO
    TITLE "1Q_t_1939-1948_37"
    INDEX 01 00:50:61
  TRACK 38 AUDIO
    TITLE "1Q_t_1939-1948_38"
    INDEX 01 00:52:01
  TRACK 39 AUDIO
    TITLE "1Q_t_1939-1948_39"
    INDEX 01 00:52:15
  TRACK 40 AUDIO
    TITLE "1Q_t_1939-1948_40"
    INDEX 01 00:53:67
  TRACK 41 AUDIO
    TITLE "1Q_t_1939-1948_41"
    INDEX 01 00:54:00
  TRACK 42 AUDIO
    TITLE "1Q_t_1939-1948_42"
    INDEX 01 00:58:67
  TRACK 43 AUDIO
    TITLE "1Q_t_1939-1948_43"
    INDEX 01 00:59:37
  TRACK 44 AUDIO
    TITLE "1Q_t_1939-1948_44"
    INDEX 01 01:00:46
  TRACK 45 AUDIO
    TITLE "1Q_t_1939-1948_45"
    INDEX 01 01:00:56
  TRACK 46 AUDIO
    TITLE "1Q_t_1939-1948_46"
    INDEX 01 01:03:54
  TRACK 47 AUDIO
    TITLE "1Q_t_1939-1948_47"
    INDEX 01 01:03:64
  TRACK 48 AUDIO
    TITLE "1Q_t_1939-1948_48"
    INDEX 01 01:07:40
  TRACK 49 AUDIO
    TITLE "1Q_t_1939-1948_49"
    INDEX 01 01:08:14
  TRACK 50 AUDIO
    TITLE "1Q_t_1939-1948_50"
    INDEX 01 01:09:23
  TRACK 51 AUDIO
    TITLE "1Q_t_1939-1948_51"
    INDEX 01 01:09:35
  TRACK 52 AUDIO
    TITLE "1Q_t_1939-1948_52"
    INDEX 01 01:11:30
  TRACK 53 AUDIO
    TITLE "1Q_t_1939-1948_53"
    INDEX 01 01:11:38
  TRACK 54 AUDIO
    TITLE "1Q_t_1939-1948_54"
    INDEX 01 01:15:55
  TRACK 55 AUDIO
    TITLE "1Q_t_1939-1948_55"
    INDEX 01 01:16:29
  TRACK 56 AUDIO
    TITLE "1Q_t_1939-1948_56"
    INDEX 01 01:17:38
  TRACK 57 AUDIO
    TITLE "1Q_t_1939-1948_57"
    INDEX 01 01:17:46
  TRACK 58 AUDIO
    TITLE "1Q_t_1939-1948_58"
    INDEX 01 01:18:46
  TRACK 59 AUDIO
    TITLE "1Q_t_1939-1948_59"
    INDEX 01 01:18:55
  TRACK 60 AUDIO
    TITLE "1Q_t_1939-1948_60"
    INDEX 01 01:24:31
